<?xml version="1.0" encoding="UTF-8" standalone="no"?>
<svg
   width="16"
   height="16"
   version="1.1"
   id="svg1"
   sodipodi:docname="ColorPickerButton.svg"
   xml:space="preserve"
   inkscape:export-filename="MovableButton.png"
   inkscape:export-xdpi="96"
   inkscape:export-ydpi="96"
   inkscape:version="1.4 (e7c3feb100, 2024-10-09)"
   xmlns:inkscape="http://www.inkscape.org/namespaces/inkscape"
   xmlns:sodipodi="http://sodipodi.sourceforge.net/DTD/sodipodi-0.dtd"
   xmlns="http://www.w3.org/2000/svg"
   xmlns:svg="http://www.w3.org/2000/svg"><defs
     id="defs1" /><sodipodi:namedview
     id="namedview1"
     pagecolor="#ffffff"
     bordercolor="#000000"
     borderopacity="0.25"
     inkscape:showpageshadow="2"
     inkscape:pageopacity="0.0"
     inkscape:pagecheckerboard="0"
     inkscape:deskcolor="#d1d1d1"
     showguides="true"
     inkscape:zoom="30.803339"
     inkscape:cx="8.6354274"
     inkscape:cy="8.7328195"
     inkscape:window-width="1920"
     inkscape:window-height="1011"
     inkscape:window-x="1681"
     inkscape:window-y="32"
     inkscape:window-maximized="1"
     inkscape:current-layer="svg1"><sodipodi:guide
       position="8.3875644,7.9891085"
       orientation="0,-1"
       id="guide1"
       inkscape:locked="false" /></sodipodi:namedview><path
     fill="#8eef97"
     d="m 4,2 v 3.133 l -1.445,-0.965 -1.11,1.664 3,2 c 0.3360369,0.2241995 0.7739631,0.2241995 1.11,0 l 3,-2 L 7.445,4.168 6,5.133 V 2 Z M 3.5,10 C 2.6715729,10 2,10.671573 2,11.5 V 13 H 1 v 2 H 9 V 13 H 8 V 11.5 C 8,10.671573 7.3284271,10 6.5,10 Z"
     id="path1"
     sodipodi:nodetypes="cccccccccccssccccccsss" /><path
     fill="#8da5f3"
     d="M 9.9096079,4.3106396 C 9.6211138,4.3106394 9.387243,4.54451 9.387243,4.8330041 v 1.044729 c 0,0.2884941 0.2338708,0.5223647 0.5223649,0.5223645 H 10.954337 V 5.8777331 H 9.9096079 v -1.044729 h 4.1789161 v 1.044729 h -1.044729 v 0.5223645 h 1.044729 c 0.288494,-3e-7 0.522364,-0.2338708 0.522364,-0.5223645 v -1.044729 c 0,-0.2884937 -0.23387,-0.5223642 -0.522364,-0.5223645 z M 12.52143,7.9671913 V 5.8777331 c -1.36e-4,-0.6963494 -1.044865,-0.6963494 -1.044729,0 V 9.5604029 L 10.17079,8.6201471 C 9.561391,8.0549422 8.7125488,8.9690799 9.3219478,9.5342848 l 2.1547532,2.0894582 h 3.134187 c 0.576988,0 1.044729,-0.467741 1.044729,-1.044729 V 9.0119203 c 0,-0.5769879 -0.467741,-1.044729 -1.044729,-1.044729 z"
     id="path1-5"
     style="stroke-width:0.522364;fill:#8eef97;fill-opacity:1"
     sodipodi:nodetypes="csssccccccccssscccccccccssssc" /></svg>
